<?xml version="1.0" encoding="UTF-8" standalone="no"?>
<!-- Created with Inkscape (http://www.inkscape.org/) -->

<svg
   width="65.48317mm"
   height="31.75522mm"
   version="1.1"
   viewBox="0 0 232.02955 112.5231"
   id="svg313"
   xmlns="http://www.w3.org/2000/svg"
   xmlns:svg="http://www.w3.org/2000/svg"
   xmlns:rdf="http://www.w3.org/1999/02/22-rdf-syntax-ns#"
   xmlns:cc="http://creativecommons.org/ns#"
   xmlns:dc="http://purl.org/dc/elements/1.1/">
  <defs
     id="defs317" />
  <metadata
     id="metadata251">
    <rdf:RDF>
      <cc:Work
         rdf:about="">
        <dc:format>image/svg+xml</dc:format>
        <dc:type
           rdf:resource="http://purl.org/dc/dcmitype/StillImage" />
      </cc:Work>
    </rdf:RDF>
  </metadata>
  <path
     d="M 9.8872319,5.068949e-7 C 4.4246005,5.068949e-7 -0.00345625,4.5077468 -0.00345625,10.065723 v 92.393547 c 0,5.55788 4.42842815,10.06383 9.89068815,10.06383 H 222.14233 c 5.46263,0 9.89068,-4.50775 9.89068,-10.06571 V 10.061943 C 232.03301,4.5040614 227.60459,5.068949e-7 222.14233,5.068949e-7 H 60.352963 Z"
     fill="#ffffff"
     stroke-width="1.06111"
     id="path253" />
  <g
     id="g795"
     transform="matrix(0.74824466,0,0,0.74824466,101.81697,22.739239)">
    <g
       style="display:inline;stroke-width:1.25282"
       transform="matrix(2.8283834,0,0,2.8283834,-329.1312,-625.29471)"
       id="ptx-baseplate">
      <rect
         ry="5.0000043"
         y="211.84821"
         x="69.925598"
         height="50"
         width="50"
         id="upper-baseplate"
         style="opacity:1;vector-effect:none;fill:#3b837e;fill-opacity:1;fill-rule:evenodd;stroke:none;stroke-width:2.07238;stroke-linecap:square;stroke-linejoin:round;stroke-miterlimit:4;stroke-dasharray:none;stroke-dashoffset:0;stroke-opacity:1" />
      <path
         style="opacity:1;vector-effect:none;fill:#284c4b;fill-opacity:1;fill-rule:evenodd;stroke:none;stroke-width:6.252;stroke-linecap:square;stroke-linejoin:round;stroke-miterlimit:4;stroke-dasharray:none;stroke-dashoffset:0;stroke-opacity:1"
         d="M 114.13086,56.224609 56.371094,113.98242 9.4960938,113.89648 v 31.43555 c 0,8.3566 6.7273892,15.08399 15.0839842,15.08399 H 145.25195 c 8.3566,0 15.08399,-6.72739 15.08399,-15.08399 V 56.228516 Z"
         transform="matrix(0.33147499,0,0,0.33147499,66.778001,208.67416)"
         id="lower-baseplate" />
      <ellipse
         ry="1.4"
         rx="1.4000001"
         cy="216.0482"
         cx="74.125595"
         id="path1085-6"
         style="opacity:1;vector-effect:none;fill:#ffffff;fill-opacity:1;fill-rule:evenodd;stroke:none;stroke-width:2.07238;stroke-linecap:square;stroke-linejoin:round;stroke-miterlimit:4;stroke-dasharray:none;stroke-dashoffset:0;stroke-opacity:1" />
      <ellipse
         style="opacity:1;vector-effect:none;fill:#ffffff;fill-opacity:1;fill-rule:evenodd;stroke:none;stroke-width:2.07238;stroke-linecap:square;stroke-linejoin:round;stroke-miterlimit:4;stroke-dasharray:none;stroke-dashoffset:0;stroke-opacity:1"
         id="ellipse1087-7"
         cx="115.72559"
         cy="216.0482"
         rx="1.4000001"
         ry="1.4" />
      <ellipse
         ry="1.4"
         rx="1.4000001"
         cy="257.64822"
         cx="115.72559"
         id="ellipse1089-5"
         style="opacity:1;vector-effect:none;fill:#ffffff;fill-opacity:1;fill-rule:evenodd;stroke:none;stroke-width:2.07238;stroke-linecap:square;stroke-linejoin:round;stroke-miterlimit:4;stroke-dasharray:none;stroke-dashoffset:0;stroke-opacity:1" />
      <ellipse
         style="opacity:1;vector-effect:none;fill:#ffffff;fill-opacity:1;fill-rule:evenodd;stroke:none;stroke-width:2.07238;stroke-linecap:square;stroke-linejoin:round;stroke-miterlimit:4;stroke-dasharray:none;stroke-dashoffset:0;stroke-opacity:1"
         id="ellipse1091-3"
         cx="74.125595"
         cy="257.64822"
         rx="1.4000001"
         ry="1.4" />
    </g>
    <g
       id="text"
       transform="matrix(3.5434382,0,0,3.5434382,-140.25741,-35.083772)">
      <path
         d="m 80.307,13.511 h 1.824 c 0.84,0 1.26,0.384 1.26,1.154 v 1.904 c 0,0.77 -0.42,1.153 -1.26,1.153 H 80.307 Z M 65.9,6.215 l 1.288,7.19 H 64.666 Z M 80.307,5.894 h 1.663 c 0.84,0 1.26,0.384 1.26,1.153 v 1.744 c 0,0.77 -0.42,1.153 -1.26,1.153 h -1.663 z m -4.025,-3.38 v 18.59 h 6.52 c 3.04,0 4.56,-1.422 4.56,-4.266 v -1.904 c 0,-1.824 -0.69,-2.898 -2.066,-3.22 1.27,-0.393 1.904,-1.456 1.904,-3.19 V 6.778 c 0,-2.843 -1.52,-4.265 -4.56,-4.265 z m -13.09,0 -3.648,18.59 h 3.836 l 0.724,-4.293 h 3.675 l 0.778,4.292 h 3.836 L 68.798,2.514 Z m -12.492,0 h -4.078 v 18.59 h 9.04 v -3.38 H 50.7 Z"
         style="fill:#284c4b"
         id="text-LAB" />
      <path
         d="m 59.899,26.306 h 2.358 c 1.661,0 2.491,0.804 2.491,2.411 v 2.518 c 0,1.607 -0.83,2.411 -2.49,2.411 h -2.36 z m 20.207,-0.027 h 2.676 c 1.678,0 2.517,0.795 2.517,2.385 v 9.672 c 0,1.626 -0.84,2.44 -2.517,2.44 h -2.676 z m -1.882,-1.643 v 17.808 h 4.717 c 1.413,0 2.472,-0.363 3.18,-1.087 0.706,-0.725 1.06,-1.713 1.06,-2.968 v -9.75 c 0,-1.22 -0.362,-2.192 -1.087,-2.916 -0.724,-0.725 -1.793,-1.086 -3.206,-1.086 z m -20.206,0 v 17.808 h 1.88 V 35.29 h 2.625 l 2.596,7.155 h 2.067 l -2.835,-7.474 c 1.52,-0.564 2.28,-1.801 2.28,-3.71 v -2.622 c 0,-1.237 -0.363,-2.213 -1.087,-2.928 -0.725,-0.716 -1.794,-1.074 -3.207,-1.074 z m 11.56,-0.048 v 1.677 h 1.817 V 40.78 h -1.817 v 1.617 h 5.517 V 40.78 H 73.277 V 26.265 h 1.818 v -1.677 h -3.7 z M 51.549,24.504 c -1.68,0 -2.92,0.348 -3.724,1.046 -0.804,0.7 -1.205,1.657 -1.205,2.875 v 10.388 c 0,2.51 1.527,3.763 4.585,3.763 1.483,0 2.852,-0.353 4.107,-1.06 V 33.698 H 53.43 v 6.625 c -0.477,0.372 -1.272,0.558 -2.385,0.558 -1.695,0 -2.544,-0.716 -2.544,-2.148 v -10.2 c 0,-0.76 0.234,-1.33 0.702,-1.71 0.47,-0.38 1.25,-0.57 2.346,-0.57 1.094,0 2.164,0.169 3.206,0.503 v -1.8 a 11.165,11.165 0 0 0 -3.206,-0.452 z"
         style="fill:#284c4b"
         id="text-GRID" />
    </g>
    <path
       style="fill:#ffffff;stroke-width:3.54344"
       d="m -81.97244,-11.945683 c -2.375812,2.0648746 -2.475875,6.2627826 0.770407,8.192229 7.235697,4.30057245 10.966739,12.6933795 9.452072,20.973239 -1.514735,8.280225 -7.983983,14.758488 -16.264045,16.274385 -8.282475,1.516414 -16.635734,-2.247518 -20.981004,-9.459839 -3.46563,-5.752276 -12.0932,-0.543082 -8.62081,5.205112 6.51347,10.782378 19.017908,16.418649 31.409364,14.152209 4.269252,-0.780861 8.317098,-2.483107 11.870763,-4.974637 l 19.86877,19.868771 c -3.836807,5.348083 -6.027247,11.776723 -5.81885,18.075464 0.284077,8.585832 4.939461,16.517603 11.490091,23.068229 L -5.8172493,56.451046 C -12.367876,49.90042 -20.299646,45.245029 -28.885478,44.960956 c -6.294964,-0.208284 -12.718931,1.978563 -18.065107,5.811079 L -66.820642,30.901982 c 2.492118,-3.553346 4.194304,-7.601345 4.974637,-11.870763 2.264583,-12.390177 -3.383424,-24.8764475 -14.156089,-31.402893 -0.868252,-0.526026 -1.861439,-0.806579 -2.875763,-0.765227 -1.257927,0.05129 -2.302646,0.502929 -3.094583,1.191218 z m 46.838247,103.783739 7.606975,7.606975 c 4.340708,4.489539 11.007201,-2.175125 6.514097,-6.519401 l -7.605675,-7.600505 z m 15.217865,-15.215215 7.604382,7.604385 c 4.340708,4.553332 11.0661927,-2.172153 6.5128639,-6.512864 L -13.403467,70.10998 Z"
       id="interface-and-plug" />
  </g>
</svg>
